<svg id="Layer_1" data-name="Layer 1" xmlns="http://www.w3.org/2000/svg" width="175" height="175" viewBox="0 0 175 175"><title>logo-clinica-soma</title><circle cx="87.5" cy="87.5" r="85.52" style="fill:#fff"/><path d="M87.5,175A87.5,87.5,0,1,1,175,87.5,87.6,87.6,0,0,1,87.5,175m0-171A83.54,83.54,0,1,0,171,87.5,83.63,83.63,0,0,0,87.5,4" style="fill:#67a88c"/><path d="M171,87.5A83.54,83.54,0,0,1,4,87.5H0a87.5,87.5,0,0,0,175,0Z" style="fill:#3b4c7d"/><path d="M28.44,75.54s-.71,5,5.86,15.33c0,0,10.18,14.11,4.69,23.62,0,0-4.5,7.38-12.93,9l0,2.74s18.72-4,18.93-19.9c0,0,1.65-7.81-7.49-19.66,0,0-11.52-14.42-.16-24.05,0,0,5.09-3.95,10.09-4.56l0-2.25S28.67,58,28.44,75.54Z" style="fill:#3b4c7d"/><polygon points="94.33 91.75 85.92 61.61 78.6 120.14 83.7 120.21 87.72 81.49 94.15 105.92 101.79 81.67 104.14 120.47 108.82 120.53 103.72 61.84 94.33 91.75" style="fill:#3b4c7d"/><polygon points="129.62 62.18 113.13 120.59 118.7 120.67 129.38 74.1 137.68 120.91 144.01 120.99 129.62 62.18" style="fill:#3b4c7d"/><path d="M64.06,61.09c-4.58-.06-8.43,3.62-9,8.43l-.55,42.38c.29,5,4.08,9,8.81,9.1s8.62-3.85,9-8.87l.55-42.38C72.4,64.93,68.66,61.15,64.06,61.09Zm4.26,50.77c0,3.55-2.3,6.39-5,6.36s-4.93-2.94-4.88-6.49c0-.17.52-40.66.53-41.1,0-3.55,2.31-6.4,5-6.36s4.94,2.94,4.89,6.49C68.85,71.44,68.33,111.54,68.32,111.86Z" style="fill:#3b4c7d"/><path d="M128.43,56.27s4.91-3.51,6.76-7.56c0,0,1.31-2.7.26-3.72,0,0-1.42-1.51-3.94-.12,0,0-6.92,4-7.77,9.41C123.74,54.29,123.18,58.49,128.43,56.27Z" style="fill:#67a88c"/><path d="M161.7,59.8c-4,.73-9.4,2.92-11.16,3.38a69.36,69.36,0,0,1-7.79,1.31c-1.7.14-11.2,1.43-15.19,1.76-5.64.47-13.15,1.14-15.52,1.83a9.62,9.62,0,0,0-1.25,6.62,1.81,1.81,0,0,0,.46,1c.23.18.71.09,1.06,0,2.39-.47,9.44-2.32,11.57-2.66s9.25-1.91,10.8-2.43c2-.67,3.47-1.51,5.3-2,6.55-1.73,10.55-2.69,13.78-4.14,1.12-.5,3.08-1.07,4.73-1.83a23.53,23.53,0,0,0,3.22-1.84A4.68,4.68,0,0,0,161.7,59.8Z" style="fill:#67a88c"/><polygon points="40.02 124.82 38.86 124.82 37.39 134.12 41.37 134.12 41.55 133.05 38.72 133.05 40.02 124.82" style="fill:#605e64"/><path d="M45.51,128.17A3.68,3.68,0,0,0,42,131.24a2.53,2.53,0,0,0,2.59,3.07,3.7,3.7,0,0,0,3.58-3.07A2.54,2.54,0,0,0,45.51,128.17ZM47,131.24a2.44,2.44,0,0,1-2.29,2,1.66,1.66,0,0,1-1.65-2,2.42,2.42,0,0,1,2.29-2A1.66,1.66,0,0,1,47,131.24Z" style="fill:#605e64"/><path d="M51,129.16a.69.69,0,0,1,.65.5l1-.48a1.41,1.41,0,0,0-1.42-1,2,2,0,0,0-2,1.68c-.12.79.3,1.11.88,1.45l1,.58a.59.59,0,0,1,.31.63,1,1,0,0,1-1,.81.93.93,0,0,1-.92-.74l-1,.43a1.75,1.75,0,0,0,1.79,1.3,2.36,2.36,0,0,0,2.29-1.91c.15-.91-.44-1.33-1.07-1.64s-1.26-.53-1.19-1A.75.75,0,0,1,51,129.16Z" style="fill:#605e64"/><path d="M59.32,134.31a3.63,3.63,0,0,0,2.93-1.58l-.85-.53a2.29,2.29,0,0,1-1.91,1.12,1.51,1.51,0,0,1-1.43-1.91h4.4l0-.17c.27-1.71-.38-3.07-2.22-3.07a3.33,3.33,0,0,0-3.3,3.11C56.7,133,57.55,134.31,59.32,134.31Zm.8-5.18a1.28,1.28,0,0,1,1.36,1.44H58.24A2,2,0,0,1,60.12,129.14Z" style="fill:#605e64"/><path d="M64.76,133.33a.93.93,0,0,1-.93-.74l-1,.43a1.75,1.75,0,0,0,1.79,1.3,2.36,2.36,0,0,0,2.29-1.91c.14-.91-.45-1.33-1.07-1.64s-1.25-.53-1.18-1a.75.75,0,0,1,.7-.57.68.68,0,0,1,.65.5l1-.48a1.41,1.41,0,0,0-1.41-1,2,2,0,0,0-2,1.68c-.12.79.29,1.11.88,1.45l1,.58a.59.59,0,0,1,.31.63A1,1,0,0,1,64.76,133.33Z" style="fill:#605e64"/><path d="M68.88,133.22h0a1.94,1.94,0,0,0,1.78,1.1,3.46,3.46,0,0,0,3.26-3.12c.25-1.58-.58-3-2.24-3a2.83,2.83,0,0,0-2.18,1.14h0l.15-1H68.53l-1.43,9.07h1.11Zm.25-2a2.33,2.33,0,0,1,2.16-2.07c1.2,0,1.71.95,1.54,2.07a2.31,2.31,0,0,1-2.21,2.1C69.45,133.33,69,132.32,69.12,131.23Z" style="fill:#605e64"/><path d="M77.86,128.17a3.33,3.33,0,0,0-3.3,3.11c-.26,1.7.59,3,2.35,3a3.63,3.63,0,0,0,2.93-1.58L79,132.2a2.3,2.3,0,0,1-1.91,1.12,1.51,1.51,0,0,1-1.43-1.91h4.4l0-.17C80.35,129.53,79.7,128.17,77.86,128.17Zm-2,2.41a2,2,0,0,1,1.87-1.44,1.28,1.28,0,0,1,1.36,1.44Z" style="fill:#605e64"/><path d="M84.84,133.93l.23-1.42a2.48,2.48,0,0,1-1.7.76,1.63,1.63,0,0,1-1.68-2,2.43,2.43,0,0,1,2.24-2,1.78,1.78,0,0,1,1.53.78l.22-1.43a2.78,2.78,0,0,0-1.46-.38,3.73,3.73,0,0,0-3.65,3.11,2.53,2.53,0,0,0,2.62,3A3.57,3.57,0,0,0,84.84,133.93Z" style="fill:#605e64"/><path d="M88,126.46a.92.92,0,0,0,.89-.75.64.64,0,0,0-.64-.78.94.94,0,0,0-.89.78A.63.63,0,0,0,88,126.46Z" style="fill:#605e64"/><polygon points="88.28 128.35 87.17 128.35 86.25 134.12 87.36 134.12 88.28 128.35" style="fill:#605e64"/><path d="M94.2,129.31h0a2,2,0,0,0-1.82-1.14,3.42,3.42,0,0,0-3.19,3c-.27,1.65.49,3.12,2.25,3.12a2.87,2.87,0,0,0,2.14-1.1h0l-.15.9h1.11l.91-5.76H94.35ZM94,131.23a2.31,2.31,0,0,1-2.2,2.1c-1.17,0-1.67-1-1.49-2.1a2.32,2.32,0,0,1,2.16-2.07C93.61,129.16,94.13,130.11,94,131.23Z" style="fill:#605e64"/><polygon points="98.84 123.42 97.73 123.42 96.04 134.11 97.15 134.11 98.84 123.42" style="fill:#605e64"/><polygon points="101 128.35 99.89 128.35 98.97 134.12 100.08 134.12 101 128.35" style="fill:#605e64"/><path d="M100.74,126.46a.92.92,0,0,0,.89-.75.64.64,0,0,0-.64-.78.94.94,0,0,0-.88.78A.63.63,0,0,0,100.74,126.46Z" style="fill:#605e64"/><path d="M103.64,133.33a.93.93,0,0,1-.92-.74l-1,.43a1.76,1.76,0,0,0,1.79,1.3,2.35,2.35,0,0,0,2.29-1.91c.15-.91-.44-1.33-1.07-1.64s-1.26-.53-1.18-1a.75.75,0,0,1,.7-.57.69.69,0,0,1,.66.5l1-.48a1.41,1.41,0,0,0-1.42-1,2,2,0,0,0-2,1.68c-.12.79.3,1.11.88,1.45l1,.58a.6.6,0,0,1,.31.63A1,1,0,0,1,103.64,133.33Z" style="fill:#605e64"/><polygon points="107.86 134.11 108.61 129.38 109.7 129.38 109.86 128.35 108.77 128.35 109.12 126.14 108.01 126.14 107.66 128.35 107.06 128.35 106.9 129.38 107.5 129.38 106.75 134.11 107.86 134.11" style="fill:#605e64"/><path d="M111.83,134.31a2.86,2.86,0,0,0,2.14-1.1h0l-.15.9H115l.91-5.76h-1.11l-.15,1h0a2,2,0,0,0-1.82-1.14,3.42,3.42,0,0,0-3.19,3C109.3,132.85,110.07,134.31,111.83,134.31Zm-1.16-3.08a2.33,2.33,0,0,1,2.16-2.07c1.2,0,1.71.95,1.54,2.07a2.31,2.31,0,0,1-2.21,2.1C111,133.33,110.5,132.32,110.67,131.23Z" style="fill:#605e64"/><path d="M118.77,129.16a.68.68,0,0,1,.65.5l1-.48a1.41,1.41,0,0,0-1.42-1,2,2,0,0,0-2,1.68c-.12.79.3,1.11.88,1.45l1,.58a.59.59,0,0,1,.31.63,1,1,0,0,1-1,.81.93.93,0,0,1-.92-.74l-1,.43a1.75,1.75,0,0,0,1.79,1.3,2.36,2.36,0,0,0,2.29-1.91c.15-.91-.44-1.33-1.07-1.64s-1.26-.53-1.18-1A.74.74,0,0,1,118.77,129.16Z" style="fill:#605e64"/><path d="M130.68,123.42l-.92,5.89h0a2,2,0,0,0-1.83-1.14,3.42,3.42,0,0,0-3.18,3c-.27,1.65.48,3.12,2.25,3.12a2.89,2.89,0,0,0,2.14-1.1h0l-.14.9h1.11l1.69-10.69Zm-1.17,7.81a2.31,2.31,0,0,1-2.21,2.1c-1.17,0-1.66-1-1.49-2.1a2.32,2.32,0,0,1,2.16-2.07C129.17,129.16,129.69,130.11,129.51,131.23Z" style="fill:#605e64"/><path d="M134.85,128.17a3.33,3.33,0,0,0-3.3,3.11c-.26,1.7.59,3,2.35,3a3.63,3.63,0,0,0,2.93-1.58l-.85-.53a2.31,2.31,0,0,1-1.91,1.12,1.51,1.51,0,0,1-1.43-1.91H137l0-.17C137.34,129.53,136.68,128.17,134.85,128.17Zm-2,2.41a2,2,0,0,1,1.87-1.44,1.28,1.28,0,0,1,1.36,1.44Z" style="fill:#605e64"/><polygon points="59.15 139.91 58.09 139.91 58.41 137.86 56.68 137.86 56.37 139.91 55.77 139.91 55.54 141.37 56.13 141.37 55.4 145.96 57.13 145.96 57.86 141.37 58.92 141.37 59.15 139.91" style="fill:#605e64"/><path d="M62.32,139.71a3.7,3.7,0,0,0-3.68,3.23,2.55,2.55,0,0,0,2.66,3.21A3.71,3.71,0,0,0,65,142.94,2.57,2.57,0,0,0,62.32,139.71Zm.93,3.23a1.94,1.94,0,0,1-1.7,1.69,1.32,1.32,0,0,1-1.16-1.69,1.93,1.93,0,0,1,1.7-1.7C63,141.24,63.38,142.1,63.24,142.94Z" style="fill:#605e64"/><path d="M71,135.51l-.78,5h0a1.81,1.81,0,0,0-1.54-.75,3.59,3.59,0,0,0-3.26,3.19c-.26,1.64.49,3.25,2.27,3.25a2.4,2.4,0,0,0,1.75-.76h0l-.08.57h1.72l1.65-10.45Zm-1,7.42a1.93,1.93,0,0,1-1.7,1.7c-.89,0-1.28-.89-1.16-1.7a1.93,1.93,0,0,1,1.7-1.69C69.71,141.24,70.11,142.12,70,142.93Z" style="fill:#605e64"/><path d="M77.17,140.48a1.88,1.88,0,0,0-1.57-.76,3.6,3.6,0,0,0-3.26,3.19c-.26,1.64.49,3.25,2.27,3.25a2.47,2.47,0,0,0,1.76-.75h0l-.09.55H78l1-6.05h-1.7ZM77,142.93a2,2,0,0,1-1.71,1.7c-.89,0-1.28-.89-1.16-1.7a1.92,1.92,0,0,1,1.7-1.69C76.67,141.24,77.08,142.12,77,142.93Z" style="fill:#605e64"/><polygon points="84.46 135.51 82.81 145.96 84.54 145.96 86.19 135.51 84.46 135.51" style="fill:#605e64"/><path d="M90.64,140.48a1.87,1.87,0,0,0-1.56-.76,3.61,3.61,0,0,0-3.27,3.19c-.26,1.64.5,3.25,2.27,3.25a2.48,2.48,0,0,0,1.76-.75h0l-.09.55h1.7l1-6.05h-1.7Zm-.21,2.45a2,2,0,0,1-1.71,1.7c-.89,0-1.28-.89-1.16-1.7a1.92,1.92,0,0,1,1.7-1.69C90.14,141.24,90.55,142.12,90.43,142.93Z" style="fill:#605e64"/><polygon points="100.97 139.91 99.18 143.32 98.3 139.91 96.41 139.91 98.19 146.08 99.08 146.08 102.85 139.91 100.97 139.91" style="fill:#605e64"/><polygon points="102.38 145.96 104.11 145.96 105.07 139.91 103.34 139.91 102.38 145.96" style="fill:#605e64"/><path d="M104.77,136.35a1.28,1.28,0,0,0-1.2,1,.85.85,0,0,0,.87,1,1.24,1.24,0,0,0,1.18-1A.84.84,0,0,0,104.77,136.35Z" style="fill:#605e64"/><path d="M111.07,135.51l-.78,5h0a1.82,1.82,0,0,0-1.54-.75,3.59,3.59,0,0,0-3.26,3.19c-.26,1.64.49,3.25,2.27,3.25a2.39,2.39,0,0,0,1.75-.76h0l-.09.57h1.73l1.65-10.45Zm-1,7.42a1.94,1.94,0,0,1-1.7,1.7c-.89,0-1.28-.89-1.16-1.7a1.93,1.93,0,0,1,1.7-1.69C109.8,141.24,110.19,142.12,110.07,142.93Z" style="fill:#605e64"/><path d="M117.26,140.48a1.88,1.88,0,0,0-1.57-.76,3.6,3.6,0,0,0-3.26,3.19c-.26,1.64.49,3.25,2.27,3.25a2.48,2.48,0,0,0,1.76-.75h0l-.09.55h1.7l1-6.05h-1.7Zm-.21,2.45a2,2,0,0,1-1.71,1.7c-.89,0-1.28-.89-1.15-1.7a1.92,1.92,0,0,1,1.7-1.69C116.76,141.24,117.17,142.12,117,142.93Z" style="fill:#605e64"/><path d="M55.05,49a7,7,0,0,0,7.12,8.37,9.93,9.93,0,0,0,4.45-1.14L67,53.8a7.5,7.5,0,0,1-4.58,1.68c-3.61,0-5.9-3-5.31-6.59a7.88,7.88,0,0,1,7.44-6.62,5.67,5.67,0,0,1,4,1.59L69,41.51A7,7,0,0,0,65,40.42,10.37,10.37,0,0,0,55.05,49Z" style="fill:#3b4c7d"/><polygon points="69.21 56.98 71.15 56.98 74.1 38.31 72.16 38.31 69.21 56.98" style="fill:#3b4c7d"/><polygon points="80.96 42.14 79.32 41.19 76.07 44.76 76.93 45.34 80.96 42.14" style="fill:#3b4c7d"/><polygon points="74.76 56.98 76.7 56.98 78.29 46.92 76.35 46.92 74.76 56.98" style="fill:#3b4c7d"/><path d="M86.87,46.61a4.1,4.1,0,0,0-3.29,1.66h0l.22-1.36H81.82L80.22,57h1.94l.73-4.63c.3-1.83.64-4,3.14-4,2,0,2,1.16,1.74,2.88L86.87,57h1.94l.95-6C90.14,48.53,89.71,46.61,86.87,46.61Z" style="fill:#3b4c7d"/><path d="M95.84,41a1.64,1.64,0,0,0-1.55,1.35,1.1,1.1,0,0,0,1.12,1.31A1.61,1.61,0,0,0,97,42.31,1.12,1.12,0,0,0,95.84,41Z" style="fill:#3b4c7d"/><polygon points="92.33 56.98 94.27 56.98 95.86 46.91 93.93 46.91 92.33 56.98" style="fill:#3b4c7d"/><path d="M97.8,52a4.41,4.41,0,0,0,4.56,5.29,6.24,6.24,0,0,0,2.88-.66l.41-2.47a4.31,4.31,0,0,1-3,1.33A2.85,2.85,0,0,1,99.76,52a4.25,4.25,0,0,1,3.91-3.53,3.09,3.09,0,0,1,2.67,1.35l.39-2.5a4.84,4.84,0,0,0-2.56-.66A6.5,6.5,0,0,0,97.8,52Z" style="fill:#3b4c7d"/><path d="M116.81,46.92l-.26,1.68h0a3.42,3.42,0,0,0-3.18-2c-2.92,0-5.14,2.52-5.57,5.27s.86,5.44,3.94,5.44a5,5,0,0,0,3.74-1.91h0L115.22,57h1.94l1.59-10.07Zm-.69,5a4,4,0,0,1-3.85,3.66c-2,0-2.9-1.77-2.6-3.66a4.06,4.06,0,0,1,3.76-3.62C115.52,48.33,116.43,50,116.13,52Z" style="fill:#3b4c7d"/></svg>